#!OML:ASF X:\für Bonn\!DataBase\2005_08_11_Bastian_Final\c3d\Bastian.ASF
:FULLY-SPECIFIED
:DEGREES
2057
root 1.87108 17.3217 -1.87746 165.914 -20.6854 -177.639
lowerback 11.5378 -2.13233 1.82532
upperback 6.81549 -3.37147 0.775711
thorax 0.609936 -1.95951 0.138573
lowerneck -1.64356 -9.1089 -2.85184
upperneck -9.22056 -12.1504 11.1173
head -1.75406 -6.50198 4.18437
rclavicle -4.9075e-015 1.43125e-014
rhumerus -216.885 -178.863 98.5127
rradius 70.9237
rwrist -164.312
rhand -18.8561 1.60577
rfingers 7.12502
rthumb 7.44404 -28.2433
lclavicle -4.9075e-015 1.43125e-014
lhumerus -17.8106 2.23664 86.4595
lradius 50.4697
lwrist 220.14
lhand -23.3787 17.6035
lfingers 7.12502
lthumb 3.07735 47.5611
rfemur 11.6533 -7.32882 19.0125
rtibia 42.9495
rfoot -15.2573 -23.8659
rtoes -1.23984
lfemur -1.92725 1.16138 -17.2566
ltibia 31.2947
lfoot -8.44728 -2.76152
ltoes -0.997231
2058
root 1.91019 17.3177 -1.79232 165.858 -20.499 -177.624
lowerback 11.6398 -2.09083 2.09736
upperback 6.82387 -3.29305 0.740354
thorax 0.549728 -1.91454 -0.053411
lowerneck -1.68704 -9.12838 -3.01441
upperneck -9.13417 -12.1751 11.2428
head -1.69738 -6.50872 4.24684
rclavicle -4.33599e-014 8.94531e-015
rhumerus -216.757 -179.315 98.1929
rradius 71.4859
rwrist -164.507
rhand -18.6765 1.64094
rfingers 7.12502
rthumb 7.61743 -28.2019
lclavicle -4.33599e-014 8.94531e-015
lhumerus -17.7696 1.20061 86.7241
lradius 51.6155
lwrist 220.393
lhand -23.449 17.9164
lfingers 7.12502
lthumb 3.00954 47.875
rfemur 12.3682 -7.23293 18.8675
rtibia 42.5162
rfoot -15.0579 -23.677
rtoes -2.42195
lfemur -2.2376 1.07589 -17.2177
ltibia 31.3503
lfoot -8.14402 -2.47244
ltoes -0.613338
2059
root 1.95075 17.3142 -1.70446 165.834 -20.3134 -177.625
lowerback 11.7402 -2.05165 2.33732
upperback 6.8215 -3.21867 0.716559
thorax 0.482233 -1.87238 -0.215162
lowerneck -1.70582 -9.13926 -3.22074
upperneck -9.0509 -12.1865 11.3943
head -1.6426 -6.50861 4.3283
rclavicle 5.47031e-014 -3.3197e-014
rhumerus -216.6 -179.784 97.8862
rradius 72.0261
rwrist -164.662
rhand -18.4205 1.63803
rfingers 7.12502
rthumb 7.86446 -28.1957
lclavicle 5.47031e-014 -3.3197e-014
lhumerus -17.7774 0.239643 86.994
lradius 52.7411
lwrist 220.596
lhand -23.5071 18.2706
lfingers 7.12502
lthumb 2.95335 48.2299
rfemur 12.9933 -7.16711 18.6927
rtibia 42.068
rfoot -14.9112 -23.289
rtoes -3.90825
lfemur -2.58482 1.01975 -17.1826
ltibia 31.3928
lfoot -7.83955 -2.22912
ltoes -0.369428
2060
root 1.99166 17.3096 -1.61492 165.808 -20.1139 -177.625
lowerback 11.8469 -2.02343 2.58867
upperback 6.83626 -3.16059 0.694135
thorax 0.429373 -1.8394 -0.380574
lowerneck -1.74322 -9.1515 -3.42747
upperneck -8.99087 -12.2004 11.5348
head -1.5926 -6.51027 4.40629
rclavicle -2.63638e-014 1.07344e-014
rhumerus -216.365 -180.316 97.5879
rradius 72.5526
rwrist -164.836
rhand -18.1607 1.6193
rfingers 7.12502
rthumb 8.11525 -28.2049
lclavicle -2.63638e-014 1.07344e-014
lhumerus -17.8157 -0.640301 87.2608
lradius 53.8793
lwrist 220.801
lhand -23.498 18.6425
lfingers 7.12502
lthumb 2.9622 48.6017
rfemur 13.5723 -7.11619 18.502
rtibia 41.5735
rfoot -14.7676 -22.8011
rtoes -5.54792
lfemur -2.94203 0.956128 -17.1454
ltibia 31.445
lfoot -7.52495 -1.94903
ltoes -0.0452764
2061
root 2.0345 17.3053 -1.5234 165.799 -19.9039 -177.665
lowerback 11.9597 -1.98955 2.77042
upperback 6.87402 -3.10563 0.681297
thorax 0.401617 -1.81143 -0.497602
lowerneck -1.83329 -9.15569 -3.6528
upperneck -8.94624 -12.2043 11.6839
head -1.53727 -6.50703 4.48839
rclavicle -5.23673e-014 1.2921e-014
rhumerus -216.037 -180.824 97.3005
rradius 73.0183
rwrist -165.006
rhand -17.8992 1.56873
rfingers 7.12502
rthumb 8.36761 -28.2455
lclavicle -5.23673e-014 1.2921e-014
lhumerus -17.8399 -1.45918 87.5248
lradius 54.9878
lwrist 220.996
lhand -23.4951 18.9506
lfingers 7.12502
lthumb 2.96499 48.9098
rfemur 14.0881 -7.07819 18.2686
rtibia 41.0146
rfoot -14.5163 -22.2768
rtoes -6.92712
lfemur -3.31233 0.871131 -17.1449
ltibia 31.5115
lfoot -7.22124 -1.63369
ltoes 0.511163
2062
root 2.07718 17.2975 -1.42875 165.757 -19.6714 -177.664
lowerback 12.1109 -1.96263 3.02247
upperback 6.92205 -3.05427 0.655148
thorax 0.360996 -1.78445 -0.666
lowerneck -1.89633 -9.17337 -3.82127
upperneck -8.93187 -12.2269 11.8215
head -1.49947 -6.51651 4.55978
rclavicle 5.22058e-014 -2.34566e-014
rhumerus -215.695 -181.283 96.9826
rradius 73.4871
rwrist -165.079
rhand -17.6939 1.54173
rfingers 7.12502
rthumb 8.56577 -28.2645
lclavicle 5.22058e-014 -2.34566e-014
lhumerus -17.9119 -2.25435 87.7427
lradius 56.118
lwrist 221.132
lhand -23.5414 19.0805
lfingers 7.12502
lthumb 2.92023 49.0403
rfemur 14.5968 -7.04502 18.0745
rtibia 40.3671
rfoot -14.2271 -21.7636
rtoes -7.88602
lfemur -3.68132 0.788005 -17.1032
ltibia 31.6035
lfoot -6.90175 -1.29615
ltoes 0.840322
2063
root 2.12109 17.2879 -1.33215 165.737 -19.4122 -177.687
lowerback 12.2612 -1.93765 3.24095
upperback 6.98234 -3.01104 0.636777
thorax 0.335987 -1.76338 -0.807329
lowerneck -1.99023 -9.18112 -3.9951
upperneck -8.9422 -12.2365 11.9566
head -1.46518 -6.52023 4.63106
rclavicle -4.39811e-014 2.48481e-014
rhumerus -215.32 -181.762 96.6716
rradius 73.9964
rwrist -165.148
rhand -17.5439 1.48178
rfingers 7.12502
rthumb 8.71049 -28.3185
lclavicle -4.39811e-014 2.48481e-014
lhumerus -18.0142 -2.93826 87.966
lradius 57.253
lwrist 221.21
lhand -23.6888 19.1028
lfingers 7.12502
lthumb 2.77793 49.0645
rfemur 15.0666 -7.01965 17.8644
rtibia 39.6365
rfoot -13.8839 -21.2938
rtoes -9.27755
lfemur -4.08178 0.758162 -17.0662
ltibia 31.7104
lfoot -6.60465 -0.991743
ltoes 1.09928
2064
root 2.1665 17.2788 -1.2333 165.694 -19.1568 -177.677
lowerback 12.4502 -1.92131 3.52283
upperback 7.04675 -2.97223 0.59037
thorax 0.291283 -1.7431 -1.01122
lowerneck -2.0595 -9.19938 -4.12619
upperneck -8.9878 -12.2614 12.1239
head -1.44605 -6.5368 4.70933
rclavicle 6.51517e-014 -1.96797e-014
rhumerus -214.982 -182.16 96.3076
rradius 74.5624
rwrist -165.152
rhand -17.4308 1.46594
rfingers 7.12502
rthumb 8.81965 -28.3298
lclavicle 6.51517e-014 -1.96797e-014
lhumerus -18.1875 -3.61404 88.1323
lradius 58.3933
lwrist 221.248
lhand -23.7048 19.0014
lfingers 7.12502
lthumb 2.76243 48.9632
rfemur 15.5242 -7.16034 17.6089
rtibia 38.8377
rfoot -13.5085 -20.7464
rtoes -11.2008
lfemur -4.48377 0.69505 -16.9992
ltibia 31.8247
lfoot -6.32748 -0.64396
ltoes 0.993517
2065
root 2.21285 17.269 -1.13265 165.658 -18.9009 -177.698
lowerback 12.6507 -1.90528 3.73787
upperback 7.12416 -2.94263 0.5537
thorax 0.257553 -1.73038 -1.16672
lowerneck -2.13334 -9.21566 -4.23902
upperneck -9.02872 -12.2839 12.2755
head -1.42687 -6.5519 4.7786
rclavicle -1.44119e-015 6.55989e-015
rhumerus -214.613 -182.564 95.9618
rradius 75.1324
rwrist -165.139
rhand -17.3093 1.46066
rfingers 7.12502
rthumb 8.93685 -28.3301
lclavicle -1.44119e-015 6.55989e-015
lhumerus -18.3724 -4.15037 88.3061
lradius 59.4854
lwrist 221.24
lhand -23.8154 18.8659
lfingers 7.12502
lthumb 2.65564 48.8291
rfemur 15.9591 -7.3074 17.3263
rtibia 38.004
rfoot -13.3032 -20.1057
rtoes -13.1947
lfemur -4.88135 0.68426 -16.9557
ltibia 31.9233
lfoot -6.02265 -0.323021
ltoes 0.636538
